<svg id="Group_4179" data-name="Group 4179" xmlns="http://www.w3.org/2000/svg" width="30" height="30" viewBox="0 0 30 30">
  <defs>
    <style>
      .cls-1 {
        fill: none;
      }

      .cls-2 {
        fill: #fff;
      }
    </style>
  </defs>
  <path id="Path_15" data-name="Path 15" class="cls-1" d="M0,0H30V30H0Z"/>
  <path id="Path_16" data-name="Path 16" class="cls-2" d="M8.092,2.5a5.592,5.592,0,0,1,5.592,5.592v5.592H8.092a5.592,5.592,0,0,1,0-11.184Zm2.961,8.553V8.092a2.961,2.961,0,1,0-2.961,2.961ZM8.092,16.316h5.592v5.592a5.592,5.592,0,1,1-5.592-5.592Zm0,2.632a2.961,2.961,0,1,0,2.961,2.961V18.947ZM21.908,2.5a5.592,5.592,0,0,1,0,11.184H16.316V8.092A5.592,5.592,0,0,1,21.908,2.5Zm0,8.553a2.961,2.961,0,1,0-2.961-2.961v2.961Zm-5.592,5.263h5.592a5.592,5.592,0,1,1-5.592,5.592Zm2.632,2.632v2.961a2.961,2.961,0,1,0,2.961-2.961Z"/>
</svg>
